<?xml version="1.0" encoding="UTF-8" standalone="no"?>
<!DOCTYPE svg PUBLIC "-//W3C//DTD SVG 20010904//EN"
              "http://www.w3.org/TR/2001/REC-SVG-20010904/DTD/svg10.dtd">

<svg xmlns="http://www.w3.org/2000/svg"
     width="1.66667in" height="1.66667in"
     viewBox="0 0 500 500">
  <path id="immaculée"
        fill="none" stroke="black" stroke-width="1"
        d="M 205.00,184.00
           C 176.84,181.63 150.45,158.36 143.79,131.00
             141.95,122.84 144.11,121.74 143.79,116.00
             142.84,104.84 142.48,100.64 147.31,90.00
             166.54,47.67 224.98,36.48 263.00,59.01
             266.76,61.24 273.86,66.12 276.83,69.13
             278.71,71.04 282.98,77.39 282.99,80.00
             282.99,82.36 280.55,85.71 279.52,88.00
             277.82,91.77 277.11,94.88 277.01,99.00
             276.76,109.47 278.77,110.03 282.00,119.00
             282.00,119.00 199.00,119.00 199.00,119.00
             192.57,119.09 185.31,121.55 184.43,129.00
             183.03,140.89 198.96,140.41 202.86,147.05
             204.68,150.15 204.95,154.49 205.00,158.00
             205.00,158.00 205.00,184.00 205.00,184.00 Z
           M 436.09,92.54
           C 439.43,91.95 441.63,91.96 445.00,92.00
             463.69,92.22 473.19,106.59 473.00,124.00
             472.91,131.80 470.45,139.19 464.82,144.82
             461.03,148.60 457.86,149.48 452.96,150.95
             449.59,151.96 445.53,152.98 442.00,152.67
             438.24,152.35 433.34,150.93 430.00,149.18
             407.31,137.28 409.28,102.49 436.09,92.54 Z
           M 304.00,237.00
           C 305.57,240.96 305.57,252.04 304.00,256.00
             304.00,256.00 304.00,237.00 304.00,237.00 Z
           M 327.00,237.00
           C 327.00,237.00 325.00,241.00 325.00,241.00
             325.00,241.00 327.00,237.00 327.00,237.00 Z
           M 145.00,238.00
           C 145.00,238.00 151.00,238.00 151.00,238.00
             148.49,244.92 148.49,249.08 151.00,256.00
             151.00,256.00 145.00,256.00 145.00,256.00
             147.80,248.28 147.80,245.72 145.00,238.00 Z
           M 166.00,243.00
           C 172.49,246.20 182.21,239.97 183.92,248.04
             183.92,248.04 183.92,252.00 183.92,252.00
             183.92,252.00 183.92,256.00 183.92,256.00
             183.92,256.00 182.00,256.00 182.00,256.00
             182.00,256.00 182.00,245.00 182.00,245.00
             172.73,246.09 176.50,249.70 174.00,256.00
             174.00,253.57 174.50,243.63 169.30,246.17
             166.40,247.58 167.60,251.96 166.00,256.00
             166.00,256.00 166.00,243.00 166.00,243.00 Z
           M 199.00,243.00
           C 205.77,246.34 215.21,239.99 216.92,248.04
             216.92,248.04 216.92,252.00 216.92,252.00
             216.92,252.00 216.92,256.00 216.92,256.00
             216.92,256.00 215.00,256.00 215.00,256.00
             215.00,256.00 215.00,245.00 215.00,245.00
             205.73,246.09 209.50,249.70 207.00,256.00
             207.00,253.57 207.50,243.63 202.30,246.17
             199.40,247.58 200.60,251.96 199.00,256.00
             199.00,256.00 199.00,243.00 199.00,243.00 Z
           M 232.00,244.00
           C 241.06,242.83 243.13,248.10 240.00,256.00
             237.24,254.80 235.05,255.57 233.31,254.65
             232.26,254.09 231.60,253.18 231.45,252.00
             230.97,248.36 237.26,247.30 240.00,246.00
             240.00,246.00 232.00,244.00 232.00,244.00 Z
           M 264.00,255.07
           C 262.68,255.11 261.34,255.35 260.02,255.07
             249.96,253.49 257.59,238.06 264.00,246.00
             260.90,245.49 255.18,246.08 257.17,250.86
             258.21,253.37 261.75,254.00 264.00,255.07 Z
           M 279.00,243.00
           C 280.50,246.78 279.64,249.69 281.02,251.67
             281.70,252.64 282.68,253.28 283.91,253.09
             287.67,252.50 287.00,245.72 287.00,243.00
             287.00,243.00 289.00,243.00 289.00,243.00
             289.00,243.00 289.00,256.00 289.00,256.00
             284.28,254.34 283.33,255.73 281.31,254.65
             278.17,252.96 279.00,246.14 279.00,243.00 Z
           M 330.00,253.00
           C 325.91,258.18 319.00,253.98 320.33,248.05
             321.33,243.62 328.85,240.17 331.00,250.00
             331.00,250.00 321.00,250.00 321.00,250.00
             324.26,253.80 325.14,254.01 330.00,253.00 Z
           M 354.00,253.00
           C 349.91,258.18 343.00,253.98 344.33,248.05
             345.33,243.62 352.85,240.17 355.00,250.00
             355.00,250.00 345.00,250.00 345.00,250.00
             348.26,253.80 349.14,254.01 354.00,253.00 Z
           M 329.00,248.00
           C 326.31,244.01 324.07,244.98 321.00,248.00
             321.00,248.00 329.00,248.00 329.00,248.00 Z
           M 353.00,248.00
           C 350.31,244.01 348.07,244.98 345.00,248.00
             345.00,248.00 353.00,248.00 353.00,248.00 Z
           M 240.00,249.03
           C 240.00,249.03 237.02,249.03 237.02,249.03
             228.26,249.85 235.38,256.62 239.01,252.26
             239.87,251.23 239.80,250.19 240.00,249.03 Z
           M 360.00,280.43
           C 365.59,279.79 371.61,280.83 377.00,282.44
             381.82,283.88 387.04,286.56 390.99,289.68
             394.36,292.35 396.86,295.32 399.07,299.00
             412.74,321.77 394.82,344.73 371.00,348.92
             368.03,349.44 365.03,350.04 362.00,349.82
             351.80,349.08 340.50,345.15 333.17,337.83
             320.16,324.82 320.16,305.19 333.17,292.17
             340.86,284.49 349.70,282.11 360.00,280.43 Z
           M 205.00,300.00
           C 201.17,300.60 198.44,301.14 195.13,298.49
             189.25,293.79 190.98,285.33 198.00,282.96
             200.43,282.10 202.58,282.62 205.00,282.96
             205.00,282.96 205.00,300.00 205.00,300.00 Z
           M 97.00,431.65
           C 102.99,430.41 109.22,430.52 113.77,435.21
             120.43,442.07 117.04,454.51 108.00,457.35
             89.92,463.02 80.85,438.52 97.00,431.65 Z
           M 87.88,67.00
           C 85.64,59.71 84.81,51.29 87.88,44.00
             93.31,30.31 110.49,24.28 124.00,29.47
             128.12,31.05 133.31,34.20 135.57,38.09
             138.26,42.72 135.34,44.81 141.00,48.00
             141.00,52.44 141.33,58.87 140.24,63.00
             137.76,72.34 129.56,80.00 120.00,81.84
             120.00,81.84 110.00,81.84 110.00,81.84
             109.99,85.98 110.18,89.31 108.31,93.00
             103.04,103.41 86.45,105.07 78.19,97.61
             70.78,90.92 71.17,76.79 79.09,70.64
             81.92,68.44 84.57,67.64 87.88,67.00 Z
           M 460.00,57.00
           C 458.43,70.51 442.04,70.08 436.23,64.61
             431.07,59.75 431.71,49.41 440.00,46.01
             442.40,45.02 445.43,44.91 448.00,45.04
             451.43,45.22 452.86,45.82 456.00,47.00
             454.77,52.34 454.86,54.35 460.00,57.00 Z
           M 303.00,68.00
           C 315.28,63.91 327.94,60.02 341.00,60.00
             364.44,59.96 375.72,60.05 398.00,69.58
             409.66,74.56 424.59,83.66 432.00,94.00
             423.92,98.87 418.86,102.70 415.55,112.00
             408.99,130.41 421.72,152.49 442.00,152.99
             449.06,153.16 450.54,152.56 457.00,150.00
             457.00,170.54 455.70,181.70 444.99,200.00
             441.68,205.65 438.02,212.02 432.00,215.00
             435.75,235.57 436.79,255.27 433.58,276.00
             433.58,276.00 429.12,297.00 429.12,297.00
             428.49,299.38 426.45,304.56 427.35,306.73
             428.32,309.08 433.70,311.07 436.00,312.31
             442.33,315.72 448.44,319.89 454.00,324.46
             471.35,338.74 486.73,363.97 487.00,387.00
             487.15,400.56 487.52,407.71 483.25,421.00
             470.70,460.13 427.68,488.94 387.00,489.00
             387.00,489.00 371.00,489.00 371.00,489.00
             344.06,488.96 314.64,475.06 296.01,456.00
             289.06,448.88 279.86,436.94 278.00,427.00
             278.00,427.00 267.00,427.87 267.00,427.87
             255.37,428.71 243.62,428.94 232.00,427.87
             218.82,426.57 205.64,423.90 193.00,419.98
             193.00,419.98 178.00,415.00 178.00,415.00
             177.95,420.51 177.73,424.52 173.66,428.79
             165.19,437.68 140.04,437.18 141.04,415.00
             141.38,407.44 144.52,404.60 150.00,400.00
             140.57,395.40 131.84,388.06 124.00,381.15
             107.05,366.24 90.04,344.86 81.00,324.00
             72.91,323.99 61.15,314.45 55.00,309.39
             34.76,292.73 19.04,263.59 19.00,237.00
             19.00,237.00 19.00,222.00 19.00,222.00
             19.41,187.47 46.35,151.49 77.00,137.31
             86.45,132.94 91.92,131.21 102.00,128.89
             105.24,128.14 112.69,127.35 115.00,126.14
             121.05,122.95 132.50,109.08 143.00,105.00
             143.00,105.00 142.00,112.00 142.00,112.00
             139.31,111.41 136.80,110.76 134.43,112.74
             130.91,115.68 131.76,122.39 137.04,123.24
             138.82,123.85 140.30,123.37 142.00,123.24
             144.63,155.16 174.10,180.64 205.00,185.00
             205.00,185.00 205.00,243.00 205.00,243.00
             205.00,243.00 198.00,243.00 198.00,243.00
             198.00,243.00 198.00,256.00 198.00,256.00
             198.00,256.00 201.00,256.00 201.00,256.00
             201.00,256.00 201.00,246.00 201.00,246.00
             201.00,246.00 205.00,246.00 205.00,246.00
             205.00,246.00 205.00,282.00 205.00,282.00
             201.65,282.01 198.00,281.72 195.11,283.74
             189.40,287.70 189.89,296.55 196.04,299.83
             198.64,301.21 202.12,300.99 205.00,301.00
             205.00,301.00 205.00,345.00 205.00,345.00
             204.97,360.31 200.00,351.90 200.00,371.00
             195.78,371.96 191.36,373.14 188.13,376.22
             181.26,382.78 184.31,391.62 193.00,394.35
             195.41,395.11 198.47,395.00 201.00,395.00
             201.00,395.00 299.00,395.00 299.00,395.00
             302.30,394.99 305.97,395.18 309.00,393.69
             315.83,390.32 318.12,382.94 312.77,377.11
             307.42,371.26 301.37,372.95 297.74,367.87
             295.25,364.39 295.01,356.26 295.00,352.00
             295.00,352.00 295.00,162.00 295.00,162.00
             295.01,157.54 295.28,149.86 297.85,146.13
             300.68,142.02 306.10,141.96 309.98,139.30
             313.66,136.79 314.88,133.84 317.37,132.13
             319.22,130.87 323.94,129.77 329.00,126.45
             338.64,120.14 343.26,110.32 342.99,99.00
             342.65,85.19 332.10,73.47 319.00,69.93
             313.33,68.39 307.80,69.91 303.00,68.00 Z
           M 301.00,69.00
           C 301.00,69.00 302.00,69.00 302.00,69.00
             302.00,69.00 301.00,70.00 301.00,70.00
             301.00,70.00 301.00,69.00 301.00,69.00 Z
           M 281.00,74.00
           C 281.00,74.00 289.00,76.00 289.00,76.00
             284.64,77.67 284.09,77.50 281.00,74.00 Z
           M 67.00,222.43
           C 53.03,227.95 55.74,249.15 70.00,249.96
             88.02,250.98 88.52,229.87 78.98,223.74
             75.48,221.49 70.92,221.83 67.00,222.43 Z
           M 306.00,237.00
           C 306.00,237.00 303.00,237.00 303.00,237.00
             303.00,237.00 303.00,256.00 303.00,256.00
             303.00,256.00 306.00,256.00 306.00,256.00
             306.00,256.00 306.00,237.00 306.00,237.00 Z
           M 330.00,237.00
           C 326.24,237.63 325.89,237.65 324.00,241.00
             324.00,241.00 330.00,237.00 330.00,237.00 Z
           M 152.00,238.00
           C 152.00,238.00 144.00,238.00 144.00,238.00
             146.79,245.69 146.79,248.31 144.00,256.00
             144.00,256.00 152.00,256.00 152.00,256.00
             149.19,248.24 149.19,245.76 152.00,238.00 Z
           M 185.00,256.00
           C 185.00,253.18 185.36,247.61 183.83,245.31
             181.53,241.87 169.04,243.00 165.00,243.00
             165.00,243.00 165.00,256.00 165.00,256.00
             165.00,256.00 168.00,256.00 168.00,256.00
             168.00,256.00 168.00,246.00 168.00,246.00
             168.00,246.00 173.00,246.00 173.00,246.00
             173.00,246.00 173.00,256.00 173.00,256.00
             173.00,256.00 176.00,256.00 176.00,256.00
             176.01,253.93 175.79,250.06 177.02,248.37
             178.69,246.07 181.22,247.09 181.93,251.02
             181.93,251.02 181.93,256.00 181.93,256.00
             181.93,256.00 185.00,256.00 185.00,256.00 Z
           M 332.00,250.00
           C 331.47,247.54 331.15,245.46 328.77,244.02
             324.17,241.25 319.03,244.82 319.16,249.99
             319.34,256.70 328.69,258.61 331.00,252.00
             326.47,252.75 325.46,253.37 322.00,250.00
             322.00,250.00 332.00,250.00 332.00,250.00 Z
           M 356.00,250.00
           C 355.47,247.54 355.15,245.46 352.77,244.02
             348.17,241.25 343.03,244.82 343.16,249.99
             343.34,256.70 352.69,258.61 355.00,252.00
             350.47,252.75 349.46,253.37 346.00,250.00
             346.00,250.00 356.00,250.00 356.00,250.00 Z
           M 322.00,247.00
           C 322.00,247.00 328.00,246.00 328.00,246.00
             328.00,246.00 328.00,248.00 328.00,248.00
             328.00,248.00 322.00,247.00 322.00,247.00 Z
           M 346.00,247.00
           C 346.00,247.00 352.00,246.00 352.00,246.00
             352.00,246.00 352.00,248.00 352.00,248.00
             352.00,248.00 346.00,247.00 346.00,247.00 Z
           M 424.30,264.66
           C 420.07,268.15 423.92,271.46 426.70,270.34
             429.12,269.38 430.14,264.18 424.30,264.66 Z
           M 355.00,280.30
           C 344.55,282.27 334.95,287.18 328.63,296.00
             323.49,303.18 322.90,308.53 323.00,317.00
             323.23,336.18 341.88,349.78 360.00,350.00
             374.52,350.17 385.51,348.35 395.90,337.00
             412.35,319.01 403.35,292.22 382.00,283.23
             373.38,279.60 364.20,279.38 355.00,280.30 Z
           M 108.04,326.43
           C 100.36,329.80 101.81,340.64 109.02,341.76
             119.25,343.35 119.62,331.18 115.57,327.74
             113.31,325.82 110.73,326.09 108.04,326.43 Z
           M 431.00,366.30
           C 425.24,367.43 419.66,369.81 415.17,373.68
             407.12,380.63 404.88,388.82 405.00,399.00
             405.21,416.31 419.00,428.80 436.00,429.00
             446.00,429.11 454.07,427.77 461.70,420.53
             474.88,408.04 474.35,384.29 459.91,372.93
             451.06,365.96 441.78,365.22 431.00,366.30 Z
           M 80.00,393.65
           C 85.66,392.48 92.45,392.43 96.57,397.21
             103.48,405.23 96.41,415.47 87.00,415.96
             82.70,416.18 78.51,415.70 75.23,412.61
             68.89,406.65 71.72,397.16 80.00,393.65 Z
           M 151.00,401.00
           C 151.00,401.00 150.00,401.00 150.00,401.00
             150.00,401.00 151.00,402.00 151.00,402.00
             151.00,402.00 151.00,401.00 151.00,401.00 Z
           M 234.00,416.00
           C 239.97,409.50 241.55,405.14 231.00,405.00
             231.00,405.00 231.00,407.00 231.00,407.00
             231.00,407.00 237.00,408.00 237.00,408.00
             237.00,408.00 231.00,417.00 231.00,417.00
             231.00,417.00 240.00,416.00 240.00,416.00
             240.00,416.00 234.00,416.00 234.00,416.00 Z
           M 243.31,405.62
           C 238.99,409.21 240.74,418.90 246.73,416.38
             250.65,414.74 251.71,404.27 243.31,405.62 Z
           M 257.00,405.00
           C 257.00,405.00 252.00,406.00 252.00,406.00
             253.84,411.08 254.82,411.93 252.00,417.00
             252.00,417.00 259.00,416.00 259.00,416.00
             256.28,412.31 257.00,409.44 257.00,405.00 Z
           M 264.00,416.00
           C 269.97,409.50 271.55,405.14 261.00,405.00
             261.00,405.00 261.00,407.00 261.00,407.00
             261.00,407.00 267.00,408.00 267.00,408.00
             267.00,408.00 261.00,417.00 261.00,417.00
             261.00,417.00 270.00,416.00 270.00,416.00
             270.00,416.00 264.00,416.00 264.00,416.00 Z
           M 247.00,415.00
           C 241.84,413.19 241.84,408.81 247.00,407.00
             247.00,407.00 247.00,415.00 247.00,415.00 Z
           M 96.00,457.00
           C 94.62,462.85 92.48,467.31 87.83,471.32
             80.88,477.31 73.72,478.10 65.00,478.00
             60.05,477.94 56.52,477.23 52.00,475.09
             37.78,468.35 33.18,449.53 42.93,437.09
             48.27,430.27 56.53,427.11 65.00,427.00
             76.93,426.86 80.19,428.12 90.00,435.00
             87.14,446.00 86.05,449.39 96.00,457.00 Z
           M 245.00,449.65
           C 250.66,448.48 257.45,448.43 261.57,453.21
             268.48,461.23 261.41,471.47 252.00,471.96
             247.70,472.18 243.51,471.70 240.23,468.61
             233.89,462.65 236.72,453.16 245.00,449.65 Z
           M 239.14,417.00
           C 239.14,417.00 231.27,417.00 231.27,417.00
             231.27,417.00 231.27,415.70 231.27,415.70
             231.80,415.20 232.35,414.68 232.91,414.17
             233.46,413.66 233.97,413.15 234.44,412.64
             235.44,411.59 236.12,410.75 236.48,410.12
             236.86,409.50 237.05,408.83 237.05,408.11
             237.05,407.45 236.85,406.93 236.45,406.56
             236.05,406.19 235.50,406.00 234.78,406.00
             234.31,406.00 233.80,406.09 233.25,406.25
             232.70,406.42 232.16,406.67 231.62,407.00
             231.62,407.00 231.55,407.00 231.55,407.00
             231.55,407.00 231.55,405.61 231.55,405.61
             231.92,405.46 232.41,405.33 233.03,405.20
             233.64,405.07 234.24,405.00 234.83,405.00
             236.02,405.00 236.95,405.30 237.62,405.91
             238.30,406.50 238.64,407.31 238.64,408.34
             238.64,408.80 238.58,409.23 238.47,409.64
             238.36,410.04 238.20,410.41 237.98,410.77
             237.77,411.11 237.54,411.45 237.27,411.77
             236.99,412.09 236.66,412.45 236.27,412.86
             235.71,413.42 235.14,413.98 234.55,414.52
             233.95,415.05 233.39,415.54 232.88,416.00
             232.88,416.00 239.14,416.00 239.14,416.00
             239.14,416.00 239.14,417.00 239.14,417.00 Z
           M 249.12,411.00
           C 249.12,413.06 248.80,414.58 248.14,415.55
             247.49,416.52 246.48,417.00 245.11,417.00
             243.71,417.00 242.69,416.51 242.05,415.53
             241.40,414.55 241.08,413.04 241.08,411.00
             241.08,408.96 241.40,407.45 242.05,406.47
             242.70,405.49 243.72,405.00 245.11,405.00
             246.50,405.00 247.52,405.50 248.16,406.50
             248.80,407.49 249.12,408.99 249.12,411.00 Z
           M 247.06,414.72
           C 247.25,414.27 247.38,413.75 247.44,413.16
             247.50,412.55 247.53,411.83 247.53,410.98
             247.53,410.16 247.50,409.45 247.44,408.83
             247.38,408.21 247.25,407.70 247.06,407.27
             246.88,406.85 246.62,406.54 246.31,406.33
             246.00,406.11 245.59,406.00 245.09,406.00
             244.60,406.00 244.20,406.11 243.88,406.33
             243.56,406.54 243.31,406.86 243.12,407.28
             242.95,407.69 242.82,408.22 242.75,408.88
             242.69,409.52 242.66,410.23 242.66,411.02
             242.66,411.86 242.68,412.57 242.73,413.16
             242.80,413.73 242.92,414.24 243.11,414.69
             243.29,415.12 243.53,415.45 243.84,415.67
             244.16,415.89 244.57,416.00 245.09,416.00
             245.58,416.00 245.99,415.90 246.31,415.69
             246.63,415.47 246.88,415.15 247.06,414.72 Z
           M 258.47,417.00
           C 258.47,417.00 252.17,417.00 252.17,417.00
             252.17,417.00 252.17,416.00 252.17,416.00
             252.17,416.00 254.59,416.00 254.59,416.00
             254.59,416.00 254.59,408.00 254.59,408.00
             254.59,408.00 252.17,408.00 252.17,408.00
             252.17,408.00 252.17,407.00 252.17,407.00
             252.50,407.00 252.86,406.97 253.23,406.91
             253.61,406.84 253.89,406.73 254.08,406.61
             254.32,406.45 254.50,406.24 254.64,406.00
             254.79,405.75 254.87,405.42 254.89,405.00
             254.89,405.00 256.09,405.00 256.09,405.00
             256.09,405.00 256.09,416.00 256.09,416.00
             256.09,416.00 258.47,416.00 258.47,416.00
             258.47,416.00 258.47,417.00 258.47,417.00 Z
           M 269.14,417.00
           C 269.14,417.00 261.27,417.00 261.27,417.00
             261.27,417.00 261.27,415.70 261.27,415.70
             261.80,415.20 262.35,414.68 262.91,414.17
             263.46,413.66 263.97,413.15 264.44,412.64
             265.44,411.59 266.12,410.75 266.48,410.12
             266.86,409.50 267.05,408.83 267.05,408.11
             267.05,407.45 266.85,406.93 266.45,406.56
             266.05,406.19 265.50,406.00 264.78,406.00
             264.31,406.00 263.80,406.09 263.25,406.25
             262.70,406.42 262.16,406.67 261.62,407.00
             261.62,407.00 261.55,407.00 261.55,407.00
             261.55,407.00 261.55,405.61 261.55,405.61
             261.92,405.46 262.41,405.33 263.03,405.20
             263.64,405.07 264.24,405.00 264.83,405.00
             266.02,405.00 266.95,405.30 267.62,405.91
             268.30,406.50 268.64,407.31 268.64,408.34
             268.64,408.80 268.58,409.23 268.47,409.64
             268.36,410.04 268.20,410.41 267.98,410.77
             267.77,411.11 267.54,411.45 267.27,411.77
             266.99,412.09 266.66,412.45 266.27,412.86
             265.71,413.42 265.14,413.98 264.55,414.52
             263.95,415.05 263.39,415.54 262.88,416.00
             262.88,416.00 269.14,416.00 269.14,416.00
             269.14,416.00 269.14,417.00 269.14,417.00 Z
           M 151.50,256.00
           C 151.50,256.00 144.61,256.00 144.61,256.00
             144.61,256.00 144.61,254.00 144.61,254.00
             144.61,254.00 146.89,254.00 146.89,254.00
             146.89,254.00 146.89,240.00 146.89,240.00
             146.89,240.00 144.61,240.00 144.61,240.00
             144.61,240.00 144.61,238.00 144.61,238.00
             144.61,238.00 151.50,238.00 151.50,238.00
             151.50,238.00 151.50,240.00 151.50,240.00
             151.50,240.00 149.22,240.00 149.22,240.00
             149.22,240.00 149.22,254.00 149.22,254.00
             149.22,254.00 151.50,254.00 151.50,254.00
             151.50,254.00 151.50,256.00 151.50,256.00 Z
           M 184.27,256.00
           C 184.27,256.00 182.06,256.00 182.06,256.00
             182.06,256.00 182.06,248.78 182.06,248.78
             182.06,248.24 182.04,247.71 181.98,247.20
             181.93,246.70 181.83,246.29 181.67,245.98
             181.48,245.66 181.22,245.42 180.89,245.25
             180.55,245.09 180.07,245.00 179.44,245.00
             178.82,245.00 178.20,245.15 177.58,245.45
             176.96,245.75 176.35,246.12 175.73,246.59
             175.77,246.76 175.79,246.96 175.80,247.20
             175.82,247.43 175.83,247.66 175.83,247.89
             175.83,247.89 175.83,256.00 175.83,256.00
             175.83,256.00 173.62,256.00 173.62,256.00
             173.62,256.00 173.62,248.78 173.62,248.78
             173.62,248.22 173.60,247.69 173.55,247.19
             173.49,246.69 173.38,246.28 173.22,245.97
             173.04,245.65 172.79,245.41 172.45,245.25
             172.12,245.09 171.63,245.00 171.00,245.00
             170.39,245.00 169.79,245.15 169.19,245.44
             168.58,245.72 167.98,246.09 167.38,246.53
             167.38,246.53 167.38,256.00 167.38,256.00
             167.38,256.00 165.17,256.00 165.17,256.00
             165.17,256.00 165.17,243.00 165.17,243.00
             165.17,243.00 167.38,243.00 167.38,243.00
             167.38,243.00 167.38,244.44 167.38,244.44
             168.06,243.99 168.74,243.64 169.42,243.39
             170.11,243.13 170.84,243.00 171.61,243.00
             172.50,243.00 173.26,243.16 173.88,243.47
             174.50,243.77 174.96,244.20 175.27,244.75
             176.16,244.14 176.97,243.70 177.70,243.42
             178.44,243.14 179.23,243.00 180.06,243.00
             181.50,243.00 182.55,243.42 183.23,244.27
             183.92,245.11 184.27,246.29 184.27,247.80
             184.27,247.80 184.27,256.00 184.27,256.00 Z
           M 217.27,256.00
           C 217.27,256.00 215.06,256.00 215.06,256.00
             215.06,256.00 215.06,248.78 215.06,248.78
             215.06,248.24 215.04,247.71 214.98,247.20
             214.93,246.70 214.83,246.29 214.67,245.98
             214.48,245.66 214.22,245.42 213.89,245.25
             213.55,245.09 213.07,245.00 212.44,245.00
             211.82,245.00 211.20,245.15 210.58,245.45
             209.96,245.75 209.35,246.12 208.73,246.59
             208.77,246.76 208.79,246.96 208.80,247.20
             208.82,247.43 208.83,247.66 208.83,247.89
             208.83,247.89 208.83,256.00 208.83,256.00
             208.83,256.00 206.62,256.00 206.62,256.00
             206.62,256.00 206.62,248.78 206.62,248.78
             206.62,248.22 206.60,247.69 206.55,247.19
             206.49,246.69 206.38,246.28 206.22,245.97
             206.04,245.65 205.79,245.41 205.45,245.25
             205.12,245.09 204.63,245.00 204.00,245.00
             203.39,245.00 202.79,245.15 202.19,245.44
             201.58,245.72 200.98,246.09 200.38,246.53
             200.38,246.53 200.38,256.00 200.38,256.00
             200.38,256.00 198.17,256.00 198.17,256.00
             198.17,256.00 198.17,243.00 198.17,243.00
             198.17,243.00 200.38,243.00 200.38,243.00
             200.38,243.00 200.38,244.44 200.38,244.44
             201.06,243.99 201.74,243.64 202.42,243.39
             203.11,243.13 203.84,243.00 204.61,243.00
             205.50,243.00 206.26,243.16 206.88,243.47
             207.50,243.77 207.96,244.20 208.27,244.75
             209.16,244.14 209.97,243.70 210.70,243.42
             211.44,243.14 212.23,243.00 213.06,243.00
             214.50,243.00 215.55,243.42 216.23,244.27
             216.92,245.11 217.27,246.29 217.27,247.80
             217.27,247.80 217.27,256.00 217.27,256.00 Z
           M 241.34,256.00
           C 241.34,256.00 239.16,256.00 239.16,256.00
             239.16,256.00 239.16,254.25 239.16,254.25
             238.96,254.39 238.69,254.57 238.36,254.81
             238.02,255.04 237.70,255.23 237.39,255.38
             237.02,255.55 236.60,255.70 236.12,255.83
             235.66,255.95 235.10,256.00 234.45,256.00
             233.27,256.00 232.27,255.61 231.45,254.83
             230.63,254.05 230.22,253.05 230.22,251.84
             230.22,250.86 230.43,250.05 230.86,249.44
             231.29,248.82 231.89,248.34 232.69,248.00
             233.48,247.65 234.43,247.41 235.55,247.28
             236.67,247.16 237.88,247.06 239.16,247.00
             239.16,247.00 239.16,246.77 239.16,246.77
             239.16,246.40 239.07,246.11 238.89,245.88
             238.71,245.65 238.46,245.46 238.14,245.33
             237.83,245.20 237.45,245.12 237.00,245.08
             236.56,245.03 236.11,245.00 235.64,245.00
             235.05,245.00 234.41,245.09 233.69,245.27
             232.98,245.43 232.25,245.68 231.50,246.00
             231.50,246.00 231.38,246.00 231.38,246.00
             231.38,246.00 231.38,243.62 231.38,243.62
             231.80,243.51 232.42,243.38 233.23,243.23
             234.05,243.08 234.85,243.00 235.64,243.00
             236.57,243.00 237.37,243.07 238.05,243.22
             238.73,243.37 239.33,243.62 239.83,243.98
             240.32,244.33 240.69,244.78 240.95,245.33
             241.21,245.88 241.34,246.57 241.34,247.39
             241.34,247.39 241.34,256.00 241.34,256.00 Z
           M 239.16,252.52
           C 239.16,252.52 239.16,249.00 239.16,249.00
             238.49,249.04 237.70,249.10 236.78,249.17
             235.88,249.25 235.16,249.36 234.62,249.50
             233.99,249.68 233.47,249.95 233.08,250.31
             232.69,250.68 232.50,251.18 232.50,251.81
             232.50,252.54 232.72,253.09 233.17,253.45
             233.63,253.82 234.32,254.00 235.25,254.00
             236.03,254.00 236.74,253.86 237.38,253.56
             238.02,253.27 238.61,252.92 239.16,252.52 Z
           M 264.84,254.73
           C 264.11,255.14 263.41,255.45 262.75,255.67
             262.09,255.89 261.39,256.00 260.66,256.00
             259.71,256.00 258.84,255.87 258.05,255.61
             257.27,255.34 256.59,254.94 256.03,254.41
             255.46,253.88 255.02,253.20 254.70,252.39
             254.39,251.57 254.23,250.61 254.23,249.52
             254.23,247.48 254.82,245.89 256.00,244.73
             257.18,243.58 258.73,243.00 260.66,243.00
             261.41,243.00 262.14,243.12 262.86,243.36
             263.58,243.60 264.24,243.89 264.84,244.23
             264.84,244.23 264.84,247.00 264.84,247.00
             264.84,247.00 264.73,247.00 264.73,247.00
             264.05,246.36 263.36,245.86 262.64,245.52
             261.93,245.17 261.24,245.00 260.56,245.00
             259.31,245.00 258.32,245.39 257.59,246.16
             256.88,246.92 256.52,248.04 256.52,249.52
             256.52,250.96 256.87,252.07 257.58,252.84
             258.29,253.62 259.28,254.00 260.56,254.00
             261.00,254.00 261.45,253.93 261.91,253.78
             262.38,253.64 262.79,253.45 263.16,253.22
             263.48,253.02 263.78,252.81 264.06,252.59
             264.34,252.37 264.57,252.17 264.73,252.00
             264.73,252.00 264.84,252.00 264.84,252.00
             264.84,252.00 264.84,254.73 264.84,254.73 Z
           M 289.02,256.00
           C 289.02,256.00 286.81,256.00 286.81,256.00
             286.81,256.00 286.81,254.25 286.81,254.25
             286.07,254.81 285.36,255.25 284.67,255.55
             283.99,255.85 283.25,256.00 282.44,256.00
             281.06,256.00 279.99,255.59 279.22,254.78
             278.46,253.97 278.08,252.78 278.08,251.20
             278.08,251.20 278.08,243.00 278.08,243.00
             278.08,243.00 280.28,243.00 280.28,243.00
             280.28,243.00 280.28,250.22 280.28,250.22
             280.28,250.87 280.31,251.42 280.38,251.88
             280.44,252.34 280.57,252.73 280.77,253.05
             280.98,253.38 281.26,253.62 281.59,253.78
             281.93,253.93 282.41,254.00 283.06,254.00
             283.62,254.00 284.24,253.86 284.92,253.58
             285.60,253.29 286.23,252.92 286.81,252.47
             286.81,252.47 286.81,243.00 286.81,243.00
             286.81,243.00 289.02,243.00 289.02,243.00
             289.02,243.00 289.02,256.00 289.02,256.00 Z
           M 305.39,256.00
           C 305.39,256.00 303.19,256.00 303.19,256.00
             303.19,256.00 303.19,237.00 303.19,237.00
             303.19,237.00 305.39,237.00 305.39,237.00
             305.39,237.00 305.39,256.00 305.39,256.00 Z
           M 331.12,250.00
           C 331.12,250.00 321.48,250.00 321.48,250.00
             321.48,250.69 321.60,251.29 321.84,251.80
             322.09,252.30 322.43,252.71 322.84,253.05
             323.25,253.36 323.73,253.60 324.28,253.77
             324.84,253.92 325.46,254.00 326.14,254.00
             327.02,254.00 327.92,253.78 328.83,253.33
             329.73,252.88 330.38,252.44 330.75,252.00
             330.75,252.00 330.88,252.00 330.88,252.00
             330.88,252.00 330.88,254.75 330.88,254.75
             330.13,255.11 329.38,255.40 328.59,255.64
             327.82,255.88 327.02,256.00 326.17,256.00
             323.99,256.00 322.30,255.45 321.08,254.34
             319.86,253.23 319.25,251.65 319.25,249.59
             319.25,247.57 319.83,245.97 321.00,244.78
             322.16,243.59 323.70,243.00 325.61,243.00
             327.37,243.00 328.73,243.51 329.69,244.52
             330.64,245.53 331.12,246.96 331.12,248.83
             331.12,248.83 331.12,250.00 331.12,250.00 Z
           M 328.98,248.00
           C 328.97,247.04 328.68,246.30 328.11,245.78
             327.54,245.26 326.66,245.00 325.50,245.00
             324.31,245.00 323.37,245.29 322.67,245.86
             321.97,246.43 321.58,247.15 321.48,248.00
             321.48,248.00 328.98,248.00 328.98,248.00 Z
           M 329.25,237.00
           C 329.25,237.00 326.06,241.00 326.06,241.00
             326.06,241.00 324.31,241.00 324.31,241.00
             324.31,241.00 326.41,237.00 326.41,237.00
             326.41,237.00 329.25,237.00 329.25,237.00 Z
           M 355.12,250.00
           C 355.12,250.00 345.48,250.00 345.48,250.00
             345.48,250.69 345.60,251.29 345.84,251.80
             346.09,252.30 346.43,252.71 346.84,253.05
             347.25,253.36 347.73,253.60 348.28,253.77
             348.84,253.92 349.46,254.00 350.14,254.00
             351.02,254.00 351.92,253.78 352.83,253.33
             353.73,252.88 354.38,252.44 354.75,252.00
             354.75,252.00 354.88,252.00 354.88,252.00
             354.88,252.00 354.88,254.75 354.88,254.75
             354.13,255.11 353.38,255.40 352.59,255.64
             351.82,255.88 351.02,256.00 350.17,256.00
             347.99,256.00 346.30,255.45 345.08,254.34
             343.86,253.23 343.25,251.65 343.25,249.59
             343.25,247.57 343.83,245.97 345.00,244.78
             346.16,243.59 347.70,243.00 349.61,243.00
             351.37,243.00 352.73,243.51 353.69,244.52
             354.64,245.53 355.12,246.96 355.12,248.83
             355.12,248.83 355.12,250.00 355.12,250.00 Z
           M 352.98,248.00
           C 352.97,247.04 352.68,246.30 352.11,245.78
             351.54,245.26 350.66,245.00 349.50,245.00
             348.31,245.00 347.37,245.29 346.67,245.86
             345.97,246.43 345.58,247.15 345.48,248.00
             345.48,248.00 352.98,248.00 352.98,248.00 Z
           M 295.16,395.00
           C 295.16,395.00 199.73,395.00 199.73,395.00
             194.88,395.00 191.14,394.09 188.52,392.28
             185.89,390.46 184.58,387.87 184.58,384.50
             184.58,378.98 187.27,375.34 192.67,373.59
             197.12,372.11 199.71,371.20 200.45,370.86
             201.19,370.53 201.97,369.75 202.78,368.53
             204.39,366.38 205.20,362.95 205.20,358.23
             205.20,358.23 205.20,155.92 205.20,155.92
             205.20,151.20 204.39,147.75 202.78,145.58
             201.97,144.36 201.19,143.59 200.45,143.25
             199.71,142.91 197.12,141.99 192.67,140.50
             187.27,138.74 184.58,135.09 184.58,129.55
             184.58,126.17 185.89,123.57 188.52,121.75
             191.14,119.92 194.88,119.00 199.73,119.00
             199.73,119.00 300.41,119.00 300.41,119.00
             305.26,119.00 309.00,119.92 311.62,121.75
             314.25,123.57 315.56,126.17 315.56,129.55
             315.56,135.09 312.87,138.74 307.48,140.50
             303.04,141.99 300.44,142.91 299.70,143.25
             298.96,143.59 298.19,144.36 297.38,145.58
             295.76,147.75 294.95,151.20 294.95,155.92
             294.95,155.92 294.95,358.23 294.95,358.23
             294.95,362.95 295.76,366.38 297.38,368.53
             298.19,369.75 298.96,370.53 299.70,370.86
             300.44,371.20 303.04,372.11 307.48,373.59
             312.87,375.34 315.56,378.98 315.56,384.50
             315.56,387.87 314.25,390.46 311.62,392.28
             309.00,394.09 305.26,395.00 300.41,395.00
             300.41,395.00 295.16,395.00 295.16,395.00 Z" />
</svg>
