<?xml version="1.0" encoding="UTF-8" standalone="no"?>
<!DOCTYPE svg PUBLIC "-//W3C//DTD SVG 20010904//EN"
              "http://www.w3.org/TR/2001/REC-SVG-20010904/DTD/svg10.dtd">

<svg xmlns="http://www.w3.org/2000/svg"
     width="1.66667in" height="1.66667in"
     viewBox="0 0 500 500">
  <path id="2012"
        fill="none" stroke="black" stroke-width="1"
        d="M 239.14,417.00
           C 239.14,417.00 231.27,417.00 231.27,417.00
             231.27,417.00 231.27,415.70 231.27,415.70
             231.80,415.20 232.35,414.68 232.91,414.17
             233.46,413.66 233.97,413.15 234.44,412.64
             235.44,411.59 236.12,410.75 236.48,410.12
             236.86,409.50 237.05,408.83 237.05,408.11
             237.05,407.45 236.85,406.93 236.45,406.56
             236.05,406.19 235.50,406.00 234.78,406.00
             234.31,406.00 233.80,406.09 233.25,406.25
             232.70,406.42 232.16,406.67 231.62,407.00
             231.62,407.00 231.55,407.00 231.55,407.00
             231.55,407.00 231.55,405.61 231.55,405.61
             231.92,405.46 232.41,405.33 233.03,405.20
             233.64,405.07 234.24,405.00 234.83,405.00
             236.02,405.00 236.95,405.30 237.62,405.91
             238.30,406.50 238.64,407.31 238.64,408.34
             238.64,408.80 238.58,409.23 238.47,409.64
             238.36,410.04 238.20,410.41 237.98,410.77
             237.77,411.11 237.54,411.45 237.27,411.77
             236.99,412.09 236.66,412.45 236.27,412.86
             235.71,413.42 235.14,413.98 234.55,414.52
             233.95,415.05 233.39,415.54 232.88,416.00
             232.88,416.00 239.14,416.00 239.14,416.00
             239.14,416.00 239.14,417.00 239.14,417.00 Z
           M 249.12,411.00
           C 249.12,413.06 248.80,414.58 248.14,415.55
             247.49,416.52 246.48,417.00 245.11,417.00
             243.71,417.00 242.69,416.51 242.05,415.53
             241.40,414.55 241.08,413.04 241.08,411.00
             241.08,408.96 241.40,407.45 242.05,406.47
             242.70,405.49 243.72,405.00 245.11,405.00
             246.50,405.00 247.52,405.50 248.16,406.50
             248.80,407.49 249.12,408.99 249.12,411.00 Z
           M 247.06,414.72
           C 247.25,414.27 247.38,413.75 247.44,413.16
             247.50,412.55 247.53,411.83 247.53,410.98
             247.53,410.16 247.50,409.45 247.44,408.83
             247.38,408.21 247.25,407.70 247.06,407.27
             246.88,406.85 246.62,406.54 246.31,406.33
             246.00,406.11 245.59,406.00 245.09,406.00
             244.60,406.00 244.20,406.11 243.88,406.33
             243.56,406.54 243.31,406.86 243.12,407.28
             242.95,407.69 242.82,408.22 242.75,408.88
             242.69,409.52 242.66,410.23 242.66,411.02
             242.66,411.86 242.68,412.57 242.73,413.16
             242.80,413.73 242.92,414.24 243.11,414.69
             243.29,415.12 243.53,415.45 243.84,415.67
             244.16,415.89 244.57,416.00 245.09,416.00
             245.58,416.00 245.99,415.90 246.31,415.69
             246.63,415.47 246.88,415.15 247.06,414.72 Z
           M 258.47,417.00
           C 258.47,417.00 252.17,417.00 252.17,417.00
             252.17,417.00 252.17,416.00 252.17,416.00
             252.17,416.00 254.59,416.00 254.59,416.00
             254.59,416.00 254.59,408.00 254.59,408.00
             254.59,408.00 252.17,408.00 252.17,408.00
             252.17,408.00 252.17,407.00 252.17,407.00
             252.50,407.00 252.86,406.97 253.23,406.91
             253.61,406.84 253.89,406.73 254.08,406.61
             254.32,406.45 254.50,406.24 254.64,406.00
             254.79,405.75 254.87,405.42 254.89,405.00
             254.89,405.00 256.09,405.00 256.09,405.00
             256.09,405.00 256.09,416.00 256.09,416.00
             256.09,416.00 258.47,416.00 258.47,416.00
             258.47,416.00 258.47,417.00 258.47,417.00 Z
           M 269.14,417.00
           C 269.14,417.00 261.27,417.00 261.27,417.00
             261.27,417.00 261.27,415.70 261.27,415.70
             261.80,415.20 262.35,414.68 262.91,414.17
             263.46,413.66 263.97,413.15 264.44,412.64
             265.44,411.59 266.12,410.75 266.48,410.12
             266.86,409.50 267.05,408.83 267.05,408.11
             267.05,407.45 266.85,406.93 266.45,406.56
             266.05,406.19 265.50,406.00 264.78,406.00
             264.31,406.00 263.80,406.09 263.25,406.25
             262.70,406.42 262.16,406.67 261.62,407.00
             261.62,407.00 261.55,407.00 261.55,407.00
             261.55,407.00 261.55,405.61 261.55,405.61
             261.92,405.46 262.41,405.33 263.03,405.20
             263.64,405.07 264.24,405.00 264.83,405.00
             266.02,405.00 266.95,405.30 267.62,405.91
             268.30,406.50 268.64,407.31 268.64,408.34
             268.64,408.80 268.58,409.23 268.47,409.64
             268.36,410.04 268.20,410.41 267.98,410.77
             267.77,411.11 267.54,411.45 267.27,411.77
             266.99,412.09 266.66,412.45 266.27,412.86
             265.71,413.42 265.14,413.98 264.55,414.52
             263.95,415.05 263.39,415.54 262.88,416.00
             262.88,416.00 269.14,416.00 269.14,416.00
             269.14,416.00 269.14,417.00 269.14,417.00 Z
           M 151.50,256.00
           C 151.50,256.00 144.61,256.00 144.61,256.00
             144.61,256.00 144.61,254.00 144.61,254.00
             144.61,254.00 146.89,254.00 146.89,254.00
             146.89,254.00 146.89,240.00 146.89,240.00
             146.89,240.00 144.61,240.00 144.61,240.00
             144.61,240.00 144.61,238.00 144.61,238.00
             144.61,238.00 151.50,238.00 151.50,238.00
             151.50,238.00 151.50,240.00 151.50,240.00
             151.50,240.00 149.22,240.00 149.22,240.00
             149.22,240.00 149.22,254.00 149.22,254.00
             149.22,254.00 151.50,254.00 151.50,254.00
             151.50,254.00 151.50,256.00 151.50,256.00 Z
           M 184.27,256.00
           C 184.27,256.00 182.06,256.00 182.06,256.00
             182.06,256.00 182.06,248.78 182.06,248.78
             182.06,248.24 182.04,247.71 181.98,247.20
             181.93,246.70 181.83,246.29 181.67,245.98
             181.48,245.66 181.22,245.42 180.89,245.25
             180.55,245.09 180.07,245.00 179.44,245.00
             178.82,245.00 178.20,245.15 177.58,245.45
             176.96,245.75 176.35,246.12 175.73,246.59
             175.77,246.76 175.79,246.96 175.80,247.20
             175.82,247.43 175.83,247.66 175.83,247.89
             175.83,247.89 175.83,256.00 175.83,256.00
             175.83,256.00 173.62,256.00 173.62,256.00
             173.62,256.00 173.62,248.78 173.62,248.78
             173.62,248.22 173.60,247.69 173.55,247.19
             173.49,246.69 173.38,246.28 173.22,245.97
             173.04,245.65 172.79,245.41 172.45,245.25
             172.12,245.09 171.63,245.00 171.00,245.00
             170.39,245.00 169.79,245.15 169.19,245.44
             168.58,245.72 167.98,246.09 167.38,246.53
             167.38,246.53 167.38,256.00 167.38,256.00
             167.38,256.00 165.17,256.00 165.17,256.00
             165.17,256.00 165.17,243.00 165.17,243.00
             165.17,243.00 167.38,243.00 167.38,243.00
             167.38,243.00 167.38,244.44 167.38,244.44
             168.06,243.99 168.74,243.64 169.42,243.39
             170.11,243.13 170.84,243.00 171.61,243.00
             172.50,243.00 173.26,243.16 173.88,243.47
             174.50,243.77 174.96,244.20 175.27,244.75
             176.16,244.14 176.97,243.70 177.70,243.42
             178.44,243.14 179.23,243.00 180.06,243.00
             181.50,243.00 182.55,243.42 183.23,244.27
             183.92,245.11 184.27,246.29 184.27,247.80
             184.27,247.80 184.27,256.00 184.27,256.00 Z
           M 217.27,256.00
           C 217.27,256.00 215.06,256.00 215.06,256.00
             215.06,256.00 215.06,248.78 215.06,248.78
             215.06,248.24 215.04,247.71 214.98,247.20
             214.93,246.70 214.83,246.29 214.67,245.98
             214.48,245.66 214.22,245.42 213.89,245.25
             213.55,245.09 213.07,245.00 212.44,245.00
             211.82,245.00 211.20,245.15 210.58,245.45
             209.96,245.75 209.35,246.12 208.73,246.59
             208.77,246.76 208.79,246.96 208.80,247.20
             208.82,247.43 208.83,247.66 208.83,247.89
             208.83,247.89 208.83,256.00 208.83,256.00
             208.83,256.00 206.62,256.00 206.62,256.00
             206.62,256.00 206.62,248.78 206.62,248.78
             206.62,248.22 206.60,247.69 206.55,247.19
             206.49,246.69 206.38,246.28 206.22,245.97
             206.04,245.65 205.79,245.41 205.45,245.25
             205.12,245.09 204.63,245.00 204.00,245.00
             203.39,245.00 202.79,245.15 202.19,245.44
             201.58,245.72 200.98,246.09 200.38,246.53
             200.38,246.53 200.38,256.00 200.38,256.00
             200.38,256.00 198.17,256.00 198.17,256.00
             198.17,256.00 198.17,243.00 198.17,243.00
             198.17,243.00 200.38,243.00 200.38,243.00
             200.38,243.00 200.38,244.44 200.38,244.44
             201.06,243.99 201.74,243.64 202.42,243.39
             203.11,243.13 203.84,243.00 204.61,243.00
             205.50,243.00 206.26,243.16 206.88,243.47
             207.50,243.77 207.96,244.20 208.27,244.75
             209.16,244.14 209.97,243.70 210.70,243.42
             211.44,243.14 212.23,243.00 213.06,243.00
             214.50,243.00 215.55,243.42 216.23,244.27
             216.92,245.11 217.27,246.29 217.27,247.80
             217.27,247.80 217.27,256.00 217.27,256.00 Z
           M 241.34,256.00
           C 241.34,256.00 239.16,256.00 239.16,256.00
             239.16,256.00 239.16,254.25 239.16,254.25
             238.96,254.39 238.69,254.57 238.36,254.81
             238.02,255.04 237.70,255.23 237.39,255.38
             237.02,255.55 236.60,255.70 236.12,255.83
             235.66,255.95 235.10,256.00 234.45,256.00
             233.27,256.00 232.27,255.61 231.45,254.83
             230.63,254.05 230.22,253.05 230.22,251.84
             230.22,250.86 230.43,250.05 230.86,249.44
             231.29,248.82 231.89,248.34 232.69,248.00
             233.48,247.65 234.43,247.41 235.55,247.28
             236.67,247.16 237.88,247.06 239.16,247.00
             239.16,247.00 239.16,246.77 239.16,246.77
             239.16,246.40 239.07,246.11 238.89,245.88
             238.71,245.65 238.46,245.46 238.14,245.33
             237.83,245.20 237.45,245.12 237.00,245.08
             236.56,245.03 236.11,245.00 235.64,245.00
             235.05,245.00 234.41,245.09 233.69,245.27
             232.98,245.43 232.25,245.68 231.50,246.00
             231.50,246.00 231.38,246.00 231.38,246.00
             231.38,246.00 231.38,243.62 231.38,243.62
             231.80,243.51 232.42,243.38 233.23,243.23
             234.05,243.08 234.85,243.00 235.64,243.00
             236.57,243.00 237.37,243.07 238.05,243.22
             238.73,243.37 239.33,243.62 239.83,243.98
             240.32,244.33 240.69,244.78 240.95,245.33
             241.21,245.88 241.34,246.57 241.34,247.39
             241.34,247.39 241.34,256.00 241.34,256.00 Z
           M 239.16,252.52
           C 239.16,252.52 239.16,249.00 239.16,249.00
             238.49,249.04 237.70,249.10 236.78,249.17
             235.88,249.25 235.16,249.36 234.62,249.50
             233.99,249.68 233.47,249.95 233.08,250.31
             232.69,250.68 232.50,251.18 232.50,251.81
             232.50,252.54 232.72,253.09 233.17,253.45
             233.63,253.82 234.32,254.00 235.25,254.00
             236.03,254.00 236.74,253.86 237.38,253.56
             238.02,253.27 238.61,252.92 239.16,252.52 Z
           M 264.84,254.73
           C 264.11,255.14 263.41,255.45 262.75,255.67
             262.09,255.89 261.39,256.00 260.66,256.00
             259.71,256.00 258.84,255.87 258.05,255.61
             257.27,255.34 256.59,254.94 256.03,254.41
             255.46,253.88 255.02,253.20 254.70,252.39
             254.39,251.57 254.23,250.61 254.23,249.52
             254.23,247.48 254.82,245.89 256.00,244.73
             257.18,243.58 258.73,243.00 260.66,243.00
             261.41,243.00 262.14,243.12 262.86,243.36
             263.58,243.60 264.24,243.89 264.84,244.23
             264.84,244.23 264.84,247.00 264.84,247.00
             264.84,247.00 264.73,247.00 264.73,247.00
             264.05,246.36 263.36,245.86 262.64,245.52
             261.93,245.17 261.24,245.00 260.56,245.00
             259.31,245.00 258.32,245.39 257.59,246.16
             256.88,246.92 256.52,248.04 256.52,249.52
             256.52,250.96 256.87,252.07 257.58,252.84
             258.29,253.62 259.28,254.00 260.56,254.00
             261.00,254.00 261.45,253.93 261.91,253.78
             262.38,253.64 262.79,253.45 263.16,253.22
             263.48,253.02 263.78,252.81 264.06,252.59
             264.34,252.37 264.57,252.17 264.73,252.00
             264.73,252.00 264.84,252.00 264.84,252.00
             264.84,252.00 264.84,254.73 264.84,254.73 Z
           M 289.02,256.00
           C 289.02,256.00 286.81,256.00 286.81,256.00
             286.81,256.00 286.81,254.25 286.81,254.25
             286.07,254.81 285.36,255.25 284.67,255.55
             283.99,255.85 283.25,256.00 282.44,256.00
             281.06,256.00 279.99,255.59 279.22,254.78
             278.46,253.97 278.08,252.78 278.08,251.20
             278.08,251.20 278.08,243.00 278.08,243.00
             278.08,243.00 280.28,243.00 280.28,243.00
             280.28,243.00 280.28,250.22 280.28,250.22
             280.28,250.87 280.31,251.42 280.38,251.88
             280.44,252.34 280.57,252.73 280.77,253.05
             280.98,253.38 281.26,253.62 281.59,253.78
             281.93,253.93 282.41,254.00 283.06,254.00
             283.62,254.00 284.24,253.86 284.92,253.58
             285.60,253.29 286.23,252.92 286.81,252.47
             286.81,252.47 286.81,243.00 286.81,243.00
             286.81,243.00 289.02,243.00 289.02,243.00
             289.02,243.00 289.02,256.00 289.02,256.00 Z
           M 305.39,256.00
           C 305.39,256.00 303.19,256.00 303.19,256.00
             303.19,256.00 303.19,237.00 303.19,237.00
             303.19,237.00 305.39,237.00 305.39,237.00
             305.39,237.00 305.39,256.00 305.39,256.00 Z
           M 331.12,250.00
           C 331.12,250.00 321.48,250.00 321.48,250.00
             321.48,250.69 321.60,251.29 321.84,251.80
             322.09,252.30 322.43,252.71 322.84,253.05
             323.25,253.36 323.73,253.60 324.28,253.77
             324.84,253.92 325.46,254.00 326.14,254.00
             327.02,254.00 327.92,253.78 328.83,253.33
             329.73,252.88 330.38,252.44 330.75,252.00
             330.75,252.00 330.88,252.00 330.88,252.00
             330.88,252.00 330.88,254.75 330.88,254.75
             330.13,255.11 329.38,255.40 328.59,255.64
             327.82,255.88 327.02,256.00 326.17,256.00
             323.99,256.00 322.30,255.45 321.08,254.34
             319.86,253.23 319.25,251.65 319.25,249.59
             319.25,247.57 319.83,245.97 321.00,244.78
             322.16,243.59 323.70,243.00 325.61,243.00
             327.37,243.00 328.73,243.51 329.69,244.52
             330.64,245.53 331.12,246.96 331.12,248.83
             331.12,248.83 331.12,250.00 331.12,250.00 Z
           M 328.98,248.00
           C 328.97,247.04 328.68,246.30 328.11,245.78
             327.54,245.26 326.66,245.00 325.50,245.00
             324.31,245.00 323.37,245.29 322.67,245.86
             321.97,246.43 321.58,247.15 321.48,248.00
             321.48,248.00 328.98,248.00 328.98,248.00 Z
           M 329.25,237.00
           C 329.25,237.00 326.06,241.00 326.06,241.00
             326.06,241.00 324.31,241.00 324.31,241.00
             324.31,241.00 326.41,237.00 326.41,237.00
             326.41,237.00 329.25,237.00 329.25,237.00 Z
           M 355.12,250.00
           C 355.12,250.00 345.48,250.00 345.48,250.00
             345.48,250.69 345.60,251.29 345.84,251.80
             346.09,252.30 346.43,252.71 346.84,253.05
             347.25,253.36 347.73,253.60 348.28,253.77
             348.84,253.92 349.46,254.00 350.14,254.00
             351.02,254.00 351.92,253.78 352.83,253.33
             353.73,252.88 354.38,252.44 354.75,252.00
             354.75,252.00 354.88,252.00 354.88,252.00
             354.88,252.00 354.88,254.75 354.88,254.75
             354.13,255.11 353.38,255.40 352.59,255.64
             351.82,255.88 351.02,256.00 350.17,256.00
             347.99,256.00 346.30,255.45 345.08,254.34
             343.86,253.23 343.25,251.65 343.25,249.59
             343.25,247.57 343.83,245.97 345.00,244.78
             346.16,243.59 347.70,243.00 349.61,243.00
             351.37,243.00 352.73,243.51 353.69,244.52
             354.64,245.53 355.12,246.96 355.12,248.83
             355.12,248.83 355.12,250.00 355.12,250.00 Z
           M 352.98,248.00
           C 352.97,247.04 352.68,246.30 352.11,245.78
             351.54,245.26 350.66,245.00 349.50,245.00
             348.31,245.00 347.37,245.29 346.67,245.86
             345.97,246.43 345.58,247.15 345.48,248.00
             345.48,248.00 352.98,248.00 352.98,248.00 Z
           M 295.16,395.00
           C 295.16,395.00 199.73,395.00 199.73,395.00
             194.88,395.00 191.14,394.09 188.52,392.28
             185.89,390.46 184.58,387.87 184.58,384.50
             184.58,378.98 187.27,375.34 192.67,373.59
             197.12,372.11 199.71,371.20 200.45,370.86
             201.19,370.53 201.97,369.75 202.78,368.53
             204.39,366.38 205.20,362.95 205.20,358.23
             205.20,358.23 205.20,155.92 205.20,155.92
             205.20,151.20 204.39,147.75 202.78,145.58
             201.97,144.36 201.19,143.59 200.45,143.25
             199.71,142.91 197.12,141.99 192.67,140.50
             187.27,138.74 184.58,135.09 184.58,129.55
             184.58,126.17 185.89,123.57 188.52,121.75
             191.14,119.92 194.88,119.00 199.73,119.00
             199.73,119.00 300.41,119.00 300.41,119.00
             305.26,119.00 309.00,119.92 311.62,121.75
             314.25,123.57 315.56,126.17 315.56,129.55
             315.56,135.09 312.87,138.74 307.48,140.50
             303.04,141.99 300.44,142.91 299.70,143.25
             298.96,143.59 298.19,144.36 297.38,145.58
             295.76,147.75 294.95,151.20 294.95,155.92
             294.95,155.92 294.95,358.23 294.95,358.23
             294.95,362.95 295.76,366.38 297.38,368.53
             298.19,369.75 298.96,370.53 299.70,370.86
             300.44,371.20 303.04,372.11 307.48,373.59
             312.87,375.34 315.56,378.98 315.56,384.50
             315.56,387.87 314.25,390.46 311.62,392.28
             309.00,394.09 305.26,395.00 300.41,395.00
             300.41,395.00 295.16,395.00 295.16,395.00 Z" />
</svg>
